<?xml version="1.0" ?><svg data-name="Layer 3" id="Layer_3" viewBox="0 0 32 32" xmlns="http://www.w3.org/2000/svg"><defs><style>.cls-1{fill:none;stroke:#3c4044;stroke-linecap:round;stroke-linejoin:round;}</style></defs><title/><rect class="cls-1" height="7.73" width="3.22" x="4.05" y="20.91"/><path class="cls-1" d="M7.27,21.56,9.9,20a4.47,4.47,0,0,1,2-.63l5.35-.3v1.2A2,2,0,0,1,16,22.11l-2.68,1,7.16,1.11,5.88-3.51a1.06,1.06,0,0,1,1.46.39h0a1.13,1.13,0,0,1-.33,1.49L18,29,7.27,27.89Z"/><ellipse class="cls-1" cx="20.51" cy="10.52" rx="5.37" ry="5.52"/><path class="cls-1" d="M19.17,11.63a1.36,1.36,0,0,0,2.67,0,1.24,1.24,0,0,0-1.33-1.11A1.24,1.24,0,0,1,19.17,9.4a1.36,1.36,0,0,1,2.67,0"/><line class="cls-1" x1="20.51" x2="20.51" y1="13.78" y2="12.75"/><line class="cls-1" x1="20.51" x2="20.51" y1="8.29" y2="7.26"/></svg>